<svg xmlns="http://www.w3.org/2000/svg" viewBox="0 0 50.5 50.5"><defs><style>.cls-1{fill:#ff6926;}.cls-2{fill:#fff;}</style></defs><g id="Camada_2" data-name="Camada 2"><g id="Camada_1-2" data-name="Camada 1"><g id="Camada_2-2" data-name="Camada 2"><g id="Camada_1-2-2" data-name="Camada 1-2"><path class="cls-1" d="M25.24,0h0A25.22,25.22,0,0,0,.12,23L0,25.25H0V48.57A1.92,1.92,0,0,0,1.93,50.5H25.24l1.65-.06h.24A25.25,25.25,0,0,0,50.5,25.25h0A25.25,25.25,0,0,0,25.26,0Z"/><path class="cls-2" d="M41.85,17.89a12.7,12.7,0,0,0-7.1-8.34A12.75,12.75,0,0,1,33.39,31l-3.13.84-2.79.71-2.22.59-1,.28L20.3,36.8l-3.1,2.67-.12,2.71.57.5,8.68-7.5,6.49-1.73a12.7,12.7,0,0,0,9.09-15.26C41.89,18.09,41.88,18,41.85,17.89Z"/><path class="cls-2" d="M7.36,31.89a10.24,10.24,0,0,0,8.3,5.29,9.72,9.72,0,0,1,.08-1.79A10.21,10.21,0,0,1,7.36,31.89Z"/><path class="cls-2" d="M15.61,23.59a1.66,1.66,0,0,0-.66-.14,1.18,1.18,0,0,0-.56.08,1.41,1.41,0,0,0-.71.61,1.29,1.29,0,0,0-.15.55v.17a1.65,1.65,0,0,0-1.69-.24,1.54,1.54,0,0,0-.65.71,1.86,1.86,0,0,0-.14.7,1.62,1.62,0,0,0,.21.82,1.57,1.57,0,0,0,.5.56,7.24,7.24,0,0,0,1.94.82,6.86,6.86,0,0,1,1.23.64,4.87,4.87,0,0,1,.45-.88c.25-.45.22-.33.73-1.33a3.88,3.88,0,0,0,.38-1.05,1.94,1.94,0,0,0,.07-.72,1.81,1.81,0,0,0-.3-.79A1.89,1.89,0,0,0,15.61,23.59Z"/><path class="cls-2" d="M20.5,23.83a7.65,7.65,0,0,0,1.91.89,6.57,6.57,0,0,1,1.21.68,5.32,5.32,0,0,1,.5-.87c.27-.43.23-.32.78-1.29a4.93,4.93,0,0,0,.42-1,2,2,0,0,0,.08-.73,1.7,1.7,0,0,0-.27-.79,1.82,1.82,0,0,0-.64-.53A1.62,1.62,0,0,0,23.8,20a1.23,1.23,0,0,0-.57.07,1.31,1.31,0,0,0-.73.56,1.42,1.42,0,0,0-.17.54v.17a1.66,1.66,0,0,0-1.68-.29,1.54,1.54,0,0,0-.67.69,1.79,1.79,0,0,0-.16.69A1.62,1.62,0,0,0,20.5,23.83Z"/><path class="cls-2" d="M29.16,20.13A7.22,7.22,0,0,0,31,21.18a7.26,7.26,0,0,1,1.14.79,5.16,5.16,0,0,1,.56-.82c.3-.41.26-.3.89-1.22a4.25,4.25,0,0,0,.5-1,2.2,2.2,0,0,0,.15-.72,1.77,1.77,0,0,0-.2-.82,2,2,0,0,0-.58-.58,1.89,1.89,0,0,0-.64-.23,1.42,1.42,0,0,0-.58,0,1.39,1.39,0,0,0-.77.5,1.46,1.46,0,0,0-.22.53l0,.17a1.44,1.44,0,0,0-2.38.18,1.89,1.89,0,0,0-.22.67,1.52,1.52,0,0,0,.11.87A1.74,1.74,0,0,0,29.16,20.13Z"/></g></g></g></g></svg>