<svg xmlns="http://www.w3.org/2000/svg" viewBox="0 0 100.96 101"><defs><style>.cls-1{fill:#ff6926;}.cls-2{fill:#fff;}</style></defs><g id="Camada_2" data-name="Camada 2"><g id="Camada_1-2" data-name="Camada 1"><path class="cls-1" d="M50.48,0h0A50.47,50.47,0,0,0,.23,45.91L0,50.5H0V97.14A3.86,3.86,0,0,0,3.86,101H50.48l3.3-.13.47,0A50.49,50.49,0,0,0,101,50.5h0A50.49,50.49,0,0,0,50.48,0Z"/><path class="cls-2" d="M83.7,35.77A25.41,25.41,0,0,0,69.49,19.09a25.33,25.33,0,0,1,9.62,14,25,25,0,0,1,.83,6.6A25.24,25.24,0,0,1,66.77,62l-6.26,1.67L54.94,65.1,50.5,66.28l-2,.55L40.6,73.59l-6.21,5.35-.24,5.42,1.14,1,17.36-15,13-3.46A25.42,25.42,0,0,0,83.82,36.37C83.78,36.17,83.75,36,83.7,35.77Z"/><path class="cls-2" d="M14.71,63.78A20.49,20.49,0,0,0,31.32,74.35a20.16,20.16,0,0,1,.16-3.57A20.45,20.45,0,0,1,14.71,63.78Z"/><path class="cls-2" d="M31.22,47.18a3.6,3.6,0,0,0-1.32-.29,2.6,2.6,0,0,0-1.13.17,2.82,2.82,0,0,0-1.42,1.21,3.15,3.15,0,0,0-.3,1.1l0,.34a3.29,3.29,0,0,0-3.38-.47,3.28,3.28,0,0,0-1.3,1.41,4.19,4.19,0,0,0-.28,1.4,3.35,3.35,0,0,0,.42,1.64,3.2,3.2,0,0,0,1,1.12c1.75,1.16,2.32,1,3.88,1.64a14.86,14.86,0,0,1,2.46,1.28,12,12,0,0,1,.9-1.76c.51-.89.44-.65,1.47-2.65a7.88,7.88,0,0,0,.76-2.1,3.71,3.71,0,0,0,.13-1.45,3.52,3.52,0,0,0-.6-1.58A4,4,0,0,0,31.22,47.18Z"/><path class="cls-2" d="M41,47.66c1.71,1.22,2.29,1.08,3.82,1.77a14.32,14.32,0,0,1,2.42,1.36,12,12,0,0,1,1-1.73c.54-.87.46-.64,1.55-2.59a8.1,8.1,0,0,0,.84-2.08,3.71,3.71,0,0,0,.17-1.45,3.49,3.49,0,0,0-.54-1.59,3.93,3.93,0,0,0-1.27-1.06A3.39,3.39,0,0,0,47.6,40a2.6,2.6,0,0,0-1.14.13A2.82,2.82,0,0,0,45,41.25a3.06,3.06,0,0,0-.34,1.09l0,.34a3.31,3.31,0,0,0-3.36-.58,3.23,3.23,0,0,0-1.35,1.37,4,4,0,0,0-.32,1.38A3.3,3.3,0,0,0,41,47.66Z"/><path class="cls-2" d="M58.31,40.25c1.59,1.37,2.18,1.29,3.64,2.11a14.53,14.53,0,0,1,2.29,1.57,11.35,11.35,0,0,1,1.11-1.64c.61-.81.52-.59,1.78-2.44a8.16,8.16,0,0,0,1-2,3.81,3.81,0,0,0,.3-1.43,3.43,3.43,0,0,0-.4-1.64,3.84,3.84,0,0,0-1.16-1.16,3.6,3.6,0,0,0-1.28-.46,2.68,2.68,0,0,0-1.15,0,2.87,2.87,0,0,0-1.55,1,2.92,2.92,0,0,0-.43,1.06l-.07.33a2.9,2.9,0,0,0-4.75.36,4,4,0,0,0-.45,1.35A3.18,3.18,0,0,0,57.42,39,3.3,3.3,0,0,0,58.31,40.25Z"/></g></g></svg>