<svg xmlns="http://www.w3.org/2000/svg" viewBox="0 0 602 101.17"><defs><style>.cls-1{fill:#ff6926;}.cls-2{fill:#fff;}</style></defs><g id="Camada_2" data-name="Camada 2"><g id="Camada_1-2" data-name="Camada 1"><path class="cls-1" d="M180.51,101.17a12.72,12.72,0,0,1-8.4-3q-3.62-3-6.41-9.28L155.55,66.73H147l-.13,12.42a25.33,25.33,0,0,0,.6,6.4,3.88,3.88,0,0,0,2.6,2.81,24.2,24.2,0,0,0,6.28.8l.66.93-1.33,9.48c-2.94-.09-5.47-.18-7.61-.27s-4.29-.16-6.47-.2-4-.07-5.54-.07q-4.41,0-9.21.2t-11.48.74l1.2-10.28q5.34-.8,7.21-3.14c1.24-1.55,1.87-4.2,1.87-7.94l.13-49.38c0-2.4-.29-4.05-.87-4.94A3.45,3.45,0,0,0,121.79,23c-.89,0-2.41.09-4.54.26L116.18,22l1.34-9.21q3.87.13,6.8.2t5.94.07h4.87q2.28,0,5.94-.13l7.41-.27q3.74-.13,8.94-.27,16.56,0,25.16,6t8.61,17.75a25,25,0,0,1-4.4,14.35,35.87,35.87,0,0,1-12.68,11l10.14,16.68a34.1,34.1,0,0,0,7,8.81,10.92,10.92,0,0,0,7,2.8l1.21,1.74L198.4,99.7Zm-21.89-47a21.67,21.67,0,0,0,3.34-1.8,17.07,17.07,0,0,0,3.27-2.81,12.28,12.28,0,0,0,2.47-4.33,19.58,19.58,0,0,0,.93-6.41q0-6.68-4.33-9.88t-13.55-3.2a2.12,2.12,0,0,0-1.73.53,5.22,5.22,0,0,0-.54,2.41q-.54,6.68-.73,12.54t-.34,11.61Z"/><path class="cls-1" d="M229.63,100.64a35.57,35.57,0,0,1-16.82-3.74,24.92,24.92,0,0,1-10.74-10.81,36.37,36.37,0,0,1-3.67-17,38.1,38.1,0,0,1,2.33-13.55,31,31,0,0,1,6.74-10.75,31.6,31.6,0,0,1,10.35-7.07A33.11,33.11,0,0,1,231,35.23q23.76,0,23.76,24.43a31.52,31.52,0,0,1-.33,4.54q-.34,2.26-.6,3.6l-1.61,1.47H219q.41,7.88,4.27,12.08T234,85.75q6.87.21,16.08-3.93l1.2.53,2.4,8a66.58,66.58,0,0,1-7,4.54A59.49,59.49,0,0,1,238,99,24,24,0,0,1,229.63,100.64ZM218.68,60.73l15.09-.94a3.15,3.15,0,0,0,1.73-.73,3.49,3.49,0,0,0,.4-2.07q0-4.66-1.8-7a6.42,6.42,0,0,0-5.41-2.33,8.5,8.5,0,0,0-7.07,3.2Q219.09,54.06,218.68,60.73Z"/><path class="cls-1" d="M291.16,100.64a32.19,32.19,0,0,1-16.09-3.81A25.57,25.57,0,0,1,264.73,86a36.56,36.56,0,0,1-3.61-16.88,35.85,35.85,0,0,1,4.21-17.62,30.7,30.7,0,0,1,11.68-12,33.93,33.93,0,0,1,17.35-4.34,56.41,56.41,0,0,1,9.34.67A57.6,57.6,0,0,1,312,38l.53,1.33q-1.2,6.15-1.87,11.08t-1.07,10.68l-10.14.53V57.12q0-4.53-1.8-6.6a6.61,6.61,0,0,0-5.27-2.07,8.8,8.8,0,0,0-7.74,3.87C282.83,54.9,282,58.73,282,63.8q0,10.55,3.27,16a10.6,10.6,0,0,0,9.67,5.4,24.2,24.2,0,0,0,6.88-.93,42.46,42.46,0,0,0,6.87-2.81l1.2.54,2.4,8.27q-4,3.07-7.2,5.21a40.72,40.72,0,0,1-6.88,3.67A18.23,18.23,0,0,1,291.16,100.64Z"/><path class="cls-1" d="M366.7,100.64q-6.13,0-9.81-2.61a9.93,9.93,0,0,1-4.2-7.4l-1.34-.54c-1.6,1.6-3.32,3.18-5.14,4.74a38.13,38.13,0,0,1-5.2,3.8,9,9,0,0,1-4.48,1.47A17.55,17.55,0,0,1,327,97.37a19.06,19.06,0,0,1-6.8-7.48,22.55,22.55,0,0,1-2.47-10.61A12.31,12.31,0,0,1,320,71.87a9.73,9.73,0,0,1,5.88-3.94l25.89-5.47V60.59q0-5.21-2.94-8.07t-8.27-2.87a20.47,20.47,0,0,0-8.08,1.87,36.85,36.85,0,0,0-7.4,4.14L323.72,55l-2.8-9.21q4.27-2.27,9.34-4.74a103.67,103.67,0,0,1,9.68-4.14,22.77,22.77,0,0,1,6.87-1.67q8.94,0,14.22,2.61a16.82,16.82,0,0,1,7.6,6.8A18.79,18.79,0,0,1,371,53.92a49,49,0,0,1-.4,5.21q-.4,3.46-.93,7.54t-1,7.61a44.37,44.37,0,0,0-.46,5.4,5.44,5.44,0,0,0,1.2,3.67,4,4,0,0,0,3.2,1.4,8.75,8.75,0,0,0,3.07-.6A19.12,19.12,0,0,0,378.18,83l2.13,3.07q-1.6,2.8-3.87,6a34.35,34.35,0,0,1-4.8,5.54A12.46,12.46,0,0,1,366.7,100.64ZM342.94,85.42a13.87,13.87,0,0,0,4.07-.74,20.44,20.44,0,0,0,4.21-1.8l.26-12-12.14,3.07a3.57,3.57,0,0,0-2.94,3.74,8.48,8.48,0,0,0,1.8,5.54A5.84,5.84,0,0,0,342.94,85.42Z"/><path class="cls-1" d="M438.5,100.64q-12.54,0-14-9.61l-.93-.4q-6,4.66-9.88,7.07t-4.94,2.4a24.76,24.76,0,0,1-13.55-3.6,23,23,0,0,1-8.67-10.28,38.49,38.49,0,0,1-3-15.88,37.49,37.49,0,0,1,4.21-18.15A30.09,30.09,0,0,1,399.6,40.11a35.58,35.58,0,0,1,17.82-4.34h2.87c.93,0,1.8,0,2.6.13V21.49q0-4.41-1.2-6T417,13.88q-.81,0-3.21.27l1.07-9.48Q420.22,4,425.49,3.2c3.51-.53,6.72-1,9.61-1.53L444.78,0l1.33,2.54q-.8,1.2-1.47,5.6t-1.2,11.61c-.35,4.81-.67,10.33-.93,16.55s-.47,13-.6,20.36-.2,15-.2,23a6.15,6.15,0,0,0,1,3.67,3.19,3.19,0,0,0,2.73,1.4,6.25,6.25,0,0,0,2.47-.47c.76-.31,1.67-.73,2.74-1.26l2.13,3.07a62.21,62.21,0,0,1-4.13,6.2A36.13,36.13,0,0,1,444,97.23,17,17,0,0,1,438.5,100.64ZM415,85.69a10.11,10.11,0,0,0,3.07-.47,13.48,13.48,0,0,0,2.54-1.07,18.87,18.87,0,0,0,2.27-1.53V50.45a21.65,21.65,0,0,0-8.14-1.87,8.88,8.88,0,0,0-7.94,4.21q-2.74,4.2-2.74,12.34a40.5,40.5,0,0,0,1.33,11.15,15.59,15.59,0,0,0,3.81,7A8,8,0,0,0,415,85.69Z"/><path class="cls-1" d="M456,90.49A9.54,9.54,0,0,0,461.73,88a7.87,7.87,0,0,0,1.86-5.67V56.19q0-4.41-1.26-6c-.85-1.06-2.43-1.6-4.74-1.6a19.16,19.16,0,0,0-3.07.54l.93-9.21q5.21-.67,10.28-1.47t9.21-1.54c2.76-.48,5.78-1,9.08-1.67l1.46,2.54a18.56,18.56,0,0,0-1.4,5.41q-.6,3.93-1,10t-.6,14q-.19,8-.2,17.29a7.14,7.14,0,0,0,.8,3.93A3.36,3.36,0,0,0,486,89.56q1.07,0,3.6-.27l.27.53-1.34,9.75q-3.46-.13-6-.27c-1.69-.09-3.45-.16-5.27-.2s-3.5-.07-5-.07q-3.47,0-7.61.34c-2.76.22-6.09.6-10,1.13Zm15.75-64.33c-3.56,0-6.26-1-8.08-2.94a11.08,11.08,0,0,1-2.73-7.87,12,12,0,0,1,3.27-8.81,11.51,11.51,0,0,1,8.6-3.34c3.39,0,6,1,7.88,2.94a11.12,11.12,0,0,1,2.8,8,12,12,0,0,1-3.2,8.74A11.43,11.43,0,0,1,471.74,26.16Z"/><path class="cls-1" d="M534.06,90.09A6.56,6.56,0,0,0,538.14,88a8.28,8.28,0,0,0,1.4-4.81l.4-21.09c0-3.74-.58-6.42-1.74-8.07s-3.07-2.47-5.74-2.47a8.47,8.47,0,0,0-3.33.73,25.07,25.07,0,0,0-3.27,1.67,29.42,29.42,0,0,0-2.61,1.74q-.27,3.6-.46,8.07t-.4,8.68q-.21,4.2-.34,7.34c-.09,2.09-.13,3.53-.13,4.33,0,2,.27,3.43.8,4.14a3.26,3.26,0,0,0,2.8,1.07c.45,0,1.43,0,2.94-.13l.4.66-1.47,9.75c-3.56-.18-6.52-.32-8.87-.4s-4.43-.14-6.21-.14q-3.73,0-7.74.14c-2.67.08-5.83.22-9.48.4l1.34-9.75q3.87-.25,5.4-1.8c1-1,1.54-2.78,1.54-5.27V56.86q0-4.68-1.34-6.28c-.89-1.06-2.62-1.6-5.2-1.6H495l-.67-.8.94-8.41q6.79-.93,13.14-2t14.48-2.54l1.34,1.47a67.05,67.05,0,0,0-1.6,9.35l.53.4q1.74-1.61,4.14-3.54t4.8-3.67a47.56,47.56,0,0,1,4.41-2.87,7,7,0,0,1,2.93-1.14q8.15,0,13.08,2.87a14.4,14.4,0,0,1,6.68,8.48Q560.89,45,563.29,43c1.61-1.29,3.23-2.51,4.88-3.67s3.13-2.13,4.47-2.93a6.81,6.81,0,0,1,3.07-1.21q10.14,0,15.55,4.54t5.4,12.82q0,2-.4,6.2c-.27,2.8-.58,5.88-.93,9.21s-.67,6.45-.94,9.34-.4,5.1-.4,6.61c0,2.14.31,3.6.94,4.41a3.64,3.64,0,0,0,3.07,1.2c.71,0,2,0,3.73-.14L602,90l-1.33,9.61q-3.48-.13-6-.27c-1.69-.09-3.43-.16-5.21-.2s-3.33-.07-4.67-.07c-1.15,0-2.6,0-4.33.07s-3.43.11-5.08.2-3.49.18-5.54.27l.94-9.75a5.71,5.71,0,0,0,3.8-1.8q1.14-1.39,1.27-4.87l.4-21.09c0-3.74-.58-6.42-1.73-8.07s-3.07-2.47-5.74-2.47a9.61,9.61,0,0,0-3.27.6,13.67,13.67,0,0,0-3.14,1.6c-1,.67-1.87,1.22-2.67,1.67L558,84a8,8,0,0,0,.86,4.34,3.22,3.22,0,0,0,2.87,1.27c.8,0,1.92,0,3.34-.14l.27.54-1.61,9.61c-2.13-.09-4-.18-5.6-.27s-3.25-.16-4.94-.2S550,99,548.61,99s-2.73,0-4.47.14l-5.14.26q-2.54.13-5.87.4Z"/><path class="cls-1" d="M50.48.08h0A50.48,50.48,0,0,0,.23,46L0,50.58H0V97.22a3.86,3.86,0,0,0,3.86,3.86H50.48l3.3-.12.47,0A50.49,50.49,0,0,0,101,50.58h0A50.49,50.49,0,0,0,50.48.08Z"/><path class="cls-2" d="M83.7,35.86A25.45,25.45,0,0,0,69.49,19.17a25.36,25.36,0,0,1,9.62,14,25,25,0,0,1,.83,6.6A25.22,25.22,0,0,1,66.77,62L60.51,63.7l-5.57,1.48L50.5,66.37l-2,.54L40.6,73.68,34.39,79l-.24,5.41,1.14,1,17.36-15,13-3.46A25.41,25.41,0,0,0,83.82,36.46C83.78,36.26,83.75,36.06,83.7,35.86Z"/><path class="cls-2" d="M14.71,63.87A20.48,20.48,0,0,0,31.32,74.43a20.2,20.2,0,0,1,.16-3.57A20.44,20.44,0,0,1,14.71,63.87Z"/><path class="cls-2" d="M31.22,47.27A3.38,3.38,0,0,0,29.9,47a2.65,2.65,0,0,0-1.13.18,2.82,2.82,0,0,0-1.42,1.2,3.15,3.15,0,0,0-.3,1.1l0,.34a3.32,3.32,0,0,0-3.38-.46,3.23,3.23,0,0,0-1.3,1.41,4.12,4.12,0,0,0-.28,1.39,3.35,3.35,0,0,0,.42,1.64,3.2,3.2,0,0,0,1,1.12c1.75,1.16,2.32,1,3.88,1.65a14.43,14.43,0,0,1,2.46,1.27,12,12,0,0,1,.9-1.76c.51-.88.44-.65,1.47-2.64a8,8,0,0,0,.76-2.1,3.76,3.76,0,0,0,.13-1.46,3.52,3.52,0,0,0-.6-1.58A3.9,3.9,0,0,0,31.22,47.27Z"/><path class="cls-2" d="M41,47.74c1.71,1.22,2.29,1.09,3.82,1.77a15.19,15.19,0,0,1,2.42,1.36,12.68,12.68,0,0,1,1-1.73,29.67,29.67,0,0,0,1.55-2.59,7.92,7.92,0,0,0,.84-2.07A3.72,3.72,0,0,0,50.72,43a3.49,3.49,0,0,0-.54-1.6,3.87,3.87,0,0,0-1.27-1A3.56,3.56,0,0,0,47.6,40a2.5,2.5,0,0,0-1.14.14A2.77,2.77,0,0,0,45,41.33a3.06,3.06,0,0,0-.34,1.09l0,.34a2.91,2.91,0,0,0-4.71.79,4,4,0,0,0-.32,1.38A3.2,3.2,0,0,0,40,46.58,3.07,3.07,0,0,0,41,47.74Z"/><path class="cls-2" d="M58.31,40.33c1.59,1.37,2.18,1.29,3.64,2.11A14.53,14.53,0,0,1,64.24,44a11.35,11.35,0,0,1,1.11-1.64c.61-.81.52-.59,1.78-2.44a8,8,0,0,0,1-2,3.78,3.78,0,0,0,.3-1.43,3.46,3.46,0,0,0-.4-1.64,4,4,0,0,0-1.16-1.16,3.62,3.62,0,0,0-1.28-.45,2.8,2.8,0,0,0-1.15,0,2.87,2.87,0,0,0-1.55,1,2.92,2.92,0,0,0-.43,1.06l-.07.33a3.29,3.29,0,0,0-3.29-.87,3.21,3.21,0,0,0-1.46,1.24,3.82,3.82,0,0,0-.45,1.35,3.14,3.14,0,0,0,.21,1.67A3.22,3.22,0,0,0,58.31,40.33Z"/></g></g></svg>